<svg xmlns="http://www.w3.org/2000/svg" version="1.1" xmlns:xlink="http://www.w3.org/1999/xlink" xmlns:svgjs="http://svgjs.com/svgjs" width="1600" height="700" preserveAspectRatio="none" viewBox="0 0 1600 700"><g mask="url(&quot;#SvgjsMask1039&quot;)" fill="none"><rect width="1600" height="700" x="0" y="0" fill="url(#SvgjsLinearGradient1040)"></rect><path d="M1626.6666666666667 700L0 700 L0 446.27Q67.74 380.67, 133.33333333333334 448.41Q143.46 378.54, 213.33333333333334 388.66Q245.51 340.84, 293.33333333333337 373.01Q326.46 326.14, 373.33333333333337 359.27Q479.36 331.96, 506.66666666666674 437.98Q545.2 343.18, 640.0000000000001 381.72Q716.91 325.3, 773.3333333333335 402.21Q845.86 394.74, 853.3333333333335 467.27Q911.31 391.91, 986.6666666666669 449.89Q987.15 370.37, 1066.666666666667 370.86Q1100.06 324.25, 1146.666666666667 357.64Q1203.88 334.85, 1226.666666666667 392.06Q1314.04 346.1, 1360.0000000000002 433.48Q1421.12 361.26, 1493.3333333333335 422.38Q1540.76 336.47, 1626.6666666666667 383.9z" fill="#182f5d"></path><path d="M1626.6666666666665 700L0 700 L0 526.27Q35.47 481.74, 80 517.21Q139.8 497.01, 160 556.81Q201.43 464.9, 293.33333333333337 506.33Q343.16 476.15, 373.33333333333337 525.98Q424.05 443.36, 506.66666666666674 494.07Q533.09 440.5, 586.6666666666667 466.92Q674.44 421.36, 720.0000000000001 509.13Q775.94 431.74, 853.3333333333335 487.68Q885.66 440.01, 933.3333333333335 472.34Q1018.98 424.65, 1066.6666666666667 510.29Q1128.16 438.45, 1200 499.95Q1293.33 459.95, 1333.3333333333333 553.28Q1348.16 434.77, 1466.6666666666665 449.6Q1516.85 419.79, 1546.6666666666665 469.97Q1615.57 458.87, 1626.6666666666665 527.77z" fill="#25467d"></path><path d="M1653.3333333333335 700L0 700 L0 551.61Q48.15 519.76, 80 567.91Q154.3 562.21, 160 636.51Q197.81 540.98, 293.33333333333337 578.79Q371.71 523.83, 426.66666666666674 602.21Q511.26 553.47, 560.0000000000001 638.06Q574.56 572.62, 640.0000000000001 587.17Q680.59 494.42, 773.3333333333335 535.01Q858.35 486.69, 906.6666666666669 571.71Q982.32 514.03, 1040.0000000000002 589.68Q1108 577.68, 1120.0000000000002 645.68Q1142.57 588.25, 1200.0000000000002 610.82Q1210.52 541.34, 1280.0000000000002 551.86Q1325.74 517.6, 1360.0000000000002 563.34Q1464.75 534.76, 1493.3333333333335 639.51Q1522.04 588.21, 1573.3333333333335 616.92Q1582.24 545.83, 1653.3333333333335 554.74z" fill="#356cb1"></path><path d="M1626.6666666666665 700L0 700 L0 644.56Q58.02 622.58, 80 680.6Q173.23 640.5, 213.33333333333334 733.73Q241.4 628.46, 346.6666666666667 656.53Q395.86 625.72, 426.6666666666667 674.92Q450.79 619.04, 506.6666666666667 643.17Q537.57 594.08, 586.6666666666667 624.98Q645.89 604.2, 666.6666666666667 663.42Q767.02 630.44, 800.0000000000001 730.8Q816.12 666.92, 880.0000000000001 683.04Q939.19 608.89, 1013.3333333333335 668.08Q1067.92 642.66, 1093.3333333333335 697.25Q1173.01 643.59, 1226.6666666666667 723.26Q1245.93 609.19, 1360 628.45Q1439.1 574.22, 1493.3333333333333 653.32Q1572.17 598.82, 1626.6666666666665 677.66z" fill="white"></path></g><defs><mask id="SvgjsMask1039"><rect width="1600" height="700" fill="#ffffff"></rect></mask><linearGradient x1="14.06%" y1="-32.14%" x2="85.94%" y2="132.14%" gradientUnits="userSpaceOnUse" id="SvgjsLinearGradient1040"><stop stop-color="#0e2a47" offset="0"></stop><stop stop-color="#00459e" offset="1"></stop></linearGradient></defs></svg>